<?xml version="1.0" encoding="UTF-8" standalone="no"?>
<!-- Generated by IcoMoon.io -->

<svg
   xmlns:dc="http://purl.org/dc/elements/1.1/"
   xmlns:cc="http://creativecommons.org/ns#"
   xmlns:rdf="http://www.w3.org/1999/02/22-rdf-syntax-ns#"
   xmlns:svg="http://www.w3.org/2000/svg"
   xmlns="http://www.w3.org/2000/svg"
   xmlns:sodipodi="http://sodipodi.sourceforge.net/DTD/sodipodi-0.dtd"
   xmlns:inkscape="http://www.inkscape.org/namespaces/inkscape"
   version="1.1"
   width="32"
   height="32"
   viewBox="0 0 32 32"
   id="svg2"
   inkscape:version="0.48.4 r9939"
   sodipodi:docname="fi-future.svg">
  <metadata
     id="metadata10">
    <rdf:RDF>
      <cc:Work
         rdf:about="">
        <dc:format>image/svg+xml</dc:format>
        <dc:type
           rdf:resource="http://purl.org/dc/dcmitype/StillImage" />
        <dc:title />
      </cc:Work>
    </rdf:RDF>
  </metadata>
  <defs
     id="defs8" />
  <sodipodi:namedview
     pagecolor="#ffffff"
     bordercolor="#666666"
     borderopacity="1"
     objecttolerance="10"
     gridtolerance="10"
     guidetolerance="10"
     inkscape:pageopacity="0"
     inkscape:pageshadow="2"
     inkscape:window-width="1920"
     inkscape:window-height="1018"
     id="namedview6"
     showgrid="false"
     inkscape:zoom="25.96875"
     inkscape:cx="9.8772563"
     inkscape:cy="17.972217"
     inkscape:window-x="-8"
     inkscape:window-y="-8"
     inkscape:window-maximized="1"
     inkscape:current-layer="svg2" />
  <path
     inkscape:transform-center-x="-2.0063576"
     style="fill:#ffffff"
     inkscape:connector-curvature="0"
     id="path3015"
     d="m 15.973456,3.6344034 c 6.705454,0 12.157287,5.3717153 12.319409,12.0573766 H 32 L 26.452024,21.876934 20.90499,15.69178 h 4.307553 c -0.163065,-4.978664 -4.234975,-8.9657419 -9.239086,-8.9657419 -5.106853,0 -9.2447422,4.1520289 -9.2447422,9.2749049 0,5.122876 4.1378892,9.274904 9.2447422,9.274904 2.048207,0 3.939006,-0.669226 5.471627,-1.79937 l 2.120786,2.267828 c -2.093452,1.641959 -4.727939,2.622234 -7.591471,2.622234 C 9.1671468,28.366539 3.6474478,22.829874 3.6474478,16 3.6493478,9.1701261 9.1690318,3.6334608 15.974399,3.6334608 z m 1.096211,5.730835 V 16.438296 L 12.537784,20.97018 11.04475,19.477147 14.958307,15.563589 V 9.3652384 h 2.11136 z" />
</svg>
