<?xml version="1.0" encoding="UTF-8" standalone="no"?>
<!-- Generated by IcoMoon.io -->

<svg
   xmlns:dc="http://purl.org/dc/elements/1.1/"
   xmlns:cc="http://creativecommons.org/ns#"
   xmlns:rdf="http://www.w3.org/1999/02/22-rdf-syntax-ns#"
   xmlns:svg="http://www.w3.org/2000/svg"
   xmlns="http://www.w3.org/2000/svg"
   xmlns:sodipodi="http://sodipodi.sourceforge.net/DTD/sodipodi-0.dtd"
   xmlns:inkscape="http://www.inkscape.org/namespaces/inkscape"
   version="1.1"
   width="32"
   height="32"
   viewBox="0 0 32 32"
   id="svg3000"
   inkscape:version="0.48.4 r9939"
   sodipodi:docname="fi-history.svg">
  <metadata
     id="metadata3008">
    <rdf:RDF>
      <cc:Work
         rdf:about="">
        <dc:format>image/svg+xml</dc:format>
        <dc:type
           rdf:resource="http://purl.org/dc/dcmitype/StillImage" />
      </cc:Work>
    </rdf:RDF>
  </metadata>
  <defs
     id="defs3006" />
  <sodipodi:namedview
     pagecolor="#ffffff"
     bordercolor="#666666"
     borderopacity="1"
     objecttolerance="10"
     gridtolerance="10"
     guidetolerance="10"
     inkscape:pageopacity="0"
     inkscape:pageshadow="2"
     inkscape:window-width="1920"
     inkscape:window-height="1018"
     id="namedview3004"
     showgrid="false"
     inkscape:zoom="24.516113"
     inkscape:cx="24.193393"
     inkscape:cy="15.940836"
     inkscape:window-x="-8"
     inkscape:window-y="-8"
     inkscape:window-maximized="1"
     inkscape:current-layer="svg3000" />
  <path
     d="M 16.026543,3.6344037 C 9.3210901,3.6344037 3.8692562,9.006119 3.7071339,15.69178 H 0 L 5.5479761,21.876934 11.095009,15.69178 H 6.7874577 c 0.1630649,-4.978664 4.2349743,-8.9657416 9.2390853,-8.9657416 5.106852,0 9.244742,4.1520286 9.244742,9.2749046 0,5.122876 -4.13789,9.274904 -9.244742,9.274904 -2.048208,0 -3.939006,-0.669226 -5.471628,-1.79937 L 8.4341302,25.744305 C 10.527581,27.386264 13.162068,28.366539 16.0256,28.366539 22.832852,28.366539 28.352552,22.829874 28.352552,16 28.350666,9.1701264 22.830967,3.6334611 16.0256,3.6334611 z m -1.096209,5.730835 v 7.0730573 l 4.531884,4.531884 1.493031,-1.493033 -3.913556,-3.913558 V 9.3652387 h -2.111359 z"
     id="path3002"
     inkscape:connector-curvature="0"
     style="fill:#ffffff"
     inkscape:transform-center-x="2.0063576" />
</svg>
